<svg width="1440" height="1024" viewBox="0 0 1440 1024" fill="none" xmlns="http://www.w3.org/2000/svg">
<g clip-path="url(#clip0)">
<path d="M233 631.286C235.787 635.562 238.731 639.52 241.693 643.143C257.141 662.033 283.766 663.526 305.762 652.96V652.96M305.762 652.96V652.96C311.155 662.935 321.582 669.151 332.922 669.151H400.221M305.762 652.96V652.96C311.424 605.019 333.422 560.49 368.055 526.861L394.277 501.4C406.126 489.895 414.026 474.932 416.844 458.659V458.659M416.844 458.659V439.631C416.844 416.155 435.875 397.124 459.351 397.124V397.124C467.389 397.124 475.263 399.403 482.058 403.697L492.15 410.074C504.646 417.971 519.125 422.163 533.908 422.163V422.163C536.067 422.163 537.816 423.912 537.816 426.071V445.625C537.816 449.953 536.407 454.162 533.802 457.618V457.618C530.038 462.61 524.149 465.545 517.897 465.545H504.215C501.765 465.545 499.412 466.503 497.659 468.215V468.215C495.543 470.28 494.524 473.22 494.907 476.151L499.813 513.624C502.201 531.864 496.788 550.266 484.904 564.308V564.308C474.921 576.105 469.442 591.058 469.442 606.512V669.151H499.227M416.844 458.659V458.659C428.702 479.611 460.759 469.339 458.232 445.397L457.168 435.318M436.355 669.151H400.221M400.221 669.151L405.603 662.513C412.953 653.447 417.989 642.73 420.277 631.286V631.286V631.286C426.446 598.755 384.896 579.729 364.299 605.654L357.008 614.831" stroke="white" stroke-width="18" stroke-linecap="round" stroke-linejoin="round"/>
<path d="M572 406C572 410.971 567.971 415 563 415C558.029 415 554 410.971 554 406C554 401.029 558.029 397 563 397C567.971 397 572 401.029 572 406Z" fill="white"/>
<path d="M563 294C622.298 294 675 344.144 675 406" stroke="white" stroke-width="18" stroke-linecap="round"/>
<path d="M563 331C604.421 331 638 364.579 638 406" stroke="white" stroke-width="18" stroke-linecap="round"/>
<path d="M601 407C601 386.303 583.987 369 563 369" stroke="white" stroke-width="18" stroke-linecap="round"/>
<path d="M548.781 574.336H575.441C587.59 574.336 596.398 576.074 601.867 579.551C607.375 582.988 610.129 588.477 610.129 596.016C610.129 601.133 608.918 605.332 606.496 608.613C604.113 611.895 600.93 613.867 596.945 614.531V615.117C602.375 616.328 606.281 618.594 608.664 621.914C611.086 625.234 612.297 629.648 612.297 635.156C612.297 642.969 609.465 649.062 603.801 653.438C598.176 657.812 590.52 660 580.832 660H548.781V574.336ZM566.945 608.262H577.492C582.414 608.262 585.969 607.5 588.156 605.977C590.383 604.453 591.496 601.934 591.496 598.418C591.496 595.137 590.285 592.793 587.863 591.387C585.48 589.941 581.691 589.219 576.496 589.219H566.945V608.262ZM566.945 622.676V645H578.781C583.781 645 587.473 644.043 589.855 642.129C592.238 640.215 593.43 637.285 593.43 633.34C593.43 626.23 588.352 622.676 578.195 622.676H566.945ZM655.129 605.977C651.34 605.977 648.371 607.188 646.223 609.609C644.074 611.992 642.844 615.391 642.531 619.805H667.609C667.531 615.391 666.379 611.992 664.152 609.609C661.926 607.188 658.918 605.977 655.129 605.977ZM657.648 661.172C647.102 661.172 638.859 658.262 632.922 652.441C626.984 646.621 624.016 638.379 624.016 627.715C624.016 616.738 626.75 608.262 632.219 602.285C637.727 596.27 645.324 593.262 655.012 593.262C664.27 593.262 671.477 595.898 676.633 601.172C681.789 606.445 684.367 613.73 684.367 623.027V631.699H642.121C642.316 636.777 643.82 640.742 646.633 643.594C649.445 646.445 653.391 647.871 658.469 647.871C662.414 647.871 666.145 647.461 669.66 646.641C673.176 645.82 676.848 644.512 680.676 642.715V656.543C677.551 658.105 674.211 659.258 670.656 660C667.102 660.781 662.766 661.172 657.648 661.172ZM740.5 660L737.043 651.094H736.574C733.566 654.883 730.461 657.52 727.258 659.004C724.094 660.449 719.953 661.172 714.836 661.172C708.547 661.172 703.586 659.375 699.953 655.781C696.359 652.188 694.562 647.07 694.562 640.43C694.562 633.477 696.984 628.359 701.828 625.078C706.711 621.758 714.055 619.922 723.859 619.57L735.227 619.219V616.348C735.227 609.707 731.828 606.387 725.031 606.387C719.797 606.387 713.645 607.969 706.574 611.133L700.656 599.062C708.195 595.117 716.555 593.145 725.734 593.145C734.523 593.145 741.262 595.059 745.949 598.887C750.637 602.715 752.98 608.535 752.98 616.348V660H740.5ZM735.227 629.648L728.312 629.883C723.117 630.039 719.25 630.977 716.711 632.695C714.172 634.414 712.902 637.031 712.902 640.547C712.902 645.586 715.793 648.105 721.574 648.105C725.715 648.105 729.016 646.914 731.477 644.531C733.977 642.148 735.227 638.984 735.227 635.039V629.648ZM828.449 594.492V603.574L818.195 606.211C820.07 609.141 821.008 612.422 821.008 616.055C821.008 623.086 818.547 628.574 813.625 632.52C808.742 636.426 801.945 638.379 793.234 638.379L790.012 638.203L787.375 637.91C785.539 639.316 784.621 640.879 784.621 642.598C784.621 645.176 787.902 646.465 794.465 646.465H805.598C812.785 646.465 818.254 648.008 822.004 651.094C825.793 654.18 827.688 658.711 827.688 664.688C827.688 672.344 824.484 678.281 818.078 682.5C811.711 686.719 802.551 688.828 790.598 688.828C781.457 688.828 774.465 687.227 769.621 684.023C764.816 680.859 762.414 676.406 762.414 670.664C762.414 666.719 763.645 663.418 766.105 660.762C768.566 658.105 772.18 656.211 776.945 655.078C775.109 654.297 773.508 653.027 772.141 651.27C770.773 649.473 770.09 647.578 770.09 645.586C770.09 643.086 770.812 641.016 772.258 639.375C773.703 637.695 775.793 636.055 778.527 634.453C775.09 632.969 772.355 630.586 770.324 627.305C768.332 624.023 767.336 620.156 767.336 615.703C767.336 608.555 769.66 603.027 774.309 599.121C778.957 595.215 785.598 593.262 794.23 593.262C796.066 593.262 798.234 593.438 800.734 593.789C803.273 594.102 804.895 594.336 805.598 594.492H828.449ZM777.883 669.258C777.883 671.719 779.055 673.652 781.398 675.059C783.781 676.465 787.102 677.168 791.359 677.168C797.766 677.168 802.785 676.289 806.418 674.531C810.051 672.773 811.867 670.371 811.867 667.324C811.867 664.863 810.793 663.164 808.645 662.227C806.496 661.289 803.176 660.82 798.684 660.82H789.426C786.145 660.82 783.391 661.582 781.164 663.105C778.977 664.668 777.883 666.719 777.883 669.258ZM784.387 615.938C784.387 619.492 785.188 622.305 786.789 624.375C788.43 626.445 790.91 627.48 794.23 627.48C797.59 627.48 800.051 626.445 801.613 624.375C803.176 622.305 803.957 619.492 803.957 615.938C803.957 608.047 800.715 604.102 794.23 604.102C787.668 604.102 784.387 608.047 784.387 615.938ZM857.16 660H839.289V568.828H857.16V660ZM903.098 605.977C899.309 605.977 896.34 607.188 894.191 609.609C892.043 611.992 890.812 615.391 890.5 619.805H915.578C915.5 615.391 914.348 611.992 912.121 609.609C909.895 607.188 906.887 605.977 903.098 605.977ZM905.617 661.172C895.07 661.172 886.828 658.262 880.891 652.441C874.953 646.621 871.984 638.379 871.984 627.715C871.984 616.738 874.719 608.262 880.188 602.285C885.695 596.27 893.293 593.262 902.98 593.262C912.238 593.262 919.445 595.898 924.602 601.172C929.758 606.445 932.336 613.73 932.336 623.027V631.699H890.09C890.285 636.777 891.789 640.742 894.602 643.594C897.414 646.445 901.359 647.871 906.438 647.871C910.383 647.871 914.113 647.461 917.629 646.641C921.145 645.82 924.816 644.512 928.645 642.715V656.543C925.52 658.105 922.18 659.258 918.625 660C915.07 660.781 910.734 661.172 905.617 661.172ZM1024.27 660H1001.18L963.918 595.195H963.391C964.133 606.641 964.504 614.805 964.504 619.688V660H948.273V574.336H971.184L1008.39 638.496H1008.8C1008.21 627.363 1007.92 619.492 1007.92 614.883V574.336H1024.27V660ZM1071.61 605.977C1067.82 605.977 1064.86 607.188 1062.71 609.609C1060.56 611.992 1059.33 615.391 1059.02 619.805H1084.09C1084.02 615.391 1082.86 611.992 1080.64 609.609C1078.41 607.188 1075.4 605.977 1071.61 605.977ZM1074.13 661.172C1063.59 661.172 1055.34 658.262 1049.41 652.441C1043.47 646.621 1040.5 638.379 1040.5 627.715C1040.5 616.738 1043.23 608.262 1048.7 602.285C1054.21 596.27 1061.81 593.262 1071.5 593.262C1080.75 593.262 1087.96 595.898 1093.12 601.172C1098.27 606.445 1100.85 613.73 1100.85 623.027V631.699H1058.61C1058.8 636.777 1060.3 640.742 1063.12 643.594C1065.93 646.445 1069.88 647.871 1074.95 647.871C1078.9 647.871 1082.63 647.461 1086.14 646.641C1089.66 645.82 1093.33 644.512 1097.16 642.715V656.543C1094.04 658.105 1090.7 659.258 1087.14 660C1083.59 660.781 1079.25 661.172 1074.13 661.172ZM1142.98 646.934C1146.11 646.934 1149.86 646.25 1154.23 644.883V658.184C1149.78 660.176 1144.31 661.172 1137.82 661.172C1130.68 661.172 1125.46 659.375 1122.18 655.781C1118.94 652.148 1117.32 646.719 1117.32 639.492V607.91H1108.76V600.352L1118.61 594.375L1123.76 580.547H1135.19V594.492H1153.53V607.91H1135.19V639.492C1135.19 642.031 1135.89 643.906 1137.3 645.117C1138.74 646.328 1140.64 646.934 1142.98 646.934Z" fill="white"/>
</g>
<defs>
<linearGradient id="paint0_linear" x1="720" y1="1024" x2="720" y2="0" gradientUnits="userSpaceOnUse">
<stop stop-color="white"/>
<stop offset="1" stop-color="white" stop-opacity="0"/>
</linearGradient>
<clipPath id="clip0">
<rect width="1440" height="1024" fill="white"/>
</clipPath>
</defs>
</svg>
